<svg xmlns="http://www.w3.org/2000/svg" width="94.31" height="53.944" viewBox="0 0 94.31 53.944"><g transform="translate(-383.424 -228)"><g transform="translate(420.225 228)"><path d="M551.092,251.726l-10.354-11.863L551.092,228l10.354,11.863Zm-2.936-11.863,2.936,3.364,2.936-3.364-2.936-3.364Z" transform="translate(-540.738 -228)" fill="#f28435"/></g><g transform="translate(383.424 243.054)"><path d="M455.306,331.24h22.428l-32.566-38.89-14.589,17.422L415.99,292.35l-32.566,38.89h22.428l13.479-16.1-3.881-4.726-12.436,14.851h-6.75l19.727-23.557,10.67,12.742L412.6,331.24h35.954L434.5,314.452l10.669-12.742,19.727,23.557h-6.75l-12.426-14.839-3.881,4.726Zm-19.59-5.972H425.441l5.138-6.136Z" transform="translate(-383.424 -292.35)" fill="#f28435"/></g></g></svg>